<svg width="786.59375px" height="185.6px" xmlns="http://www.w3.org/2000/svg" viewBox="-143.296875 -17.799999999999997 786.59375 185.6" style="background: rgba(0, 0, 0, 0);" preserveAspectRatio="xMidYMid"><defs><linearGradient id="editing-outline-gradient" x1="-0.41354545764260087" x2="1.4135454576426008" y1="0.09326335692419985" y2="0.9067366430758002"><stop offset="0" stop-color="#ee4208"></stop><stop offset="1" stop-color="#4139ff"></stop></linearGradient><filter id="editing-outline" x="-100%" y="-100%" width="300%" height="300%"><feMorphology in="SourceGraphic" operator="dilate" radius="1" result="outline"></feMorphology><feComposite operator="out" in="outline" in2="SourceAlpha"></feComposite></filter></defs><g filter="url(#editing-outline)"><g transform="translate(-30.42500925064087, 127.98000144958496)"><path d="M56.52-65.61L35.40 0L25.37 0L1.06-78.12L10.38-78.12L30.44-12.51L51.45-78.12L61.60-78.12L82.60-12.51L102.66-78.12L111.98-78.12L87.67 0L77.64 0L56.52-65.61ZM120.71-82.60L129.56-82.60L129.56-49.80L129.56-49.80Q132.75-54.04 137.35-56.99L137.35-56.99L137.35-56.99Q141.95-59.94 147.85-59.94L147.85-59.94L147.85-59.94Q153.75-59.94 158.00-58.29L158.00-58.29L158.00-58.29Q162.25-56.64 165.44-53.34L165.44-53.34L165.44-53.34Q172.75-46.14 172.75-34.34L172.75-34.34L172.75 0L163.90 0L163.90-34.10L163.90-34.10Q163.90-42.24 159.30-47.08L159.30-47.08L159.30-47.08Q154.70-51.92 147.38-51.92L147.38-51.92L147.38-51.92Q139.95-51.92 134.76-46.96L134.76-46.96L134.76-46.96Q129.56-41.89 129.56-33.98L129.56-33.98L129.56 0L120.71 0L120.71-82.60ZM233.52 0L233.52-9.44L233.52-9.44Q226.44 0.94 212.40 0.94L212.40 0.94L212.40 0.94Q199.66 0.94 191.63-7.91L191.63-7.91L191.63-7.91Q183.84-16.64 183.84-29.50L183.84-29.50L183.84-29.50Q183.84-42.36 191.63-51.09L191.63-51.09L191.63-51.09Q199.66-59.94 212.99-59.94L212.99-59.94L212.99-59.94Q226.32-59.94 233.52-49.44L233.52-49.44L233.52-59.00L242.37-59.00L242.37 0L233.52 0ZM213.58-7.08L213.58-7.08L213.58-7.08Q223.14-7.08 228.68-13.69L228.68-13.69L228.68-13.69Q233.99-19.94 233.99-29.50L233.99-29.50L233.99-29.50Q233.99-39.06 228.68-45.31L228.68-45.31L228.68-45.31Q223.14-51.92 213.58-51.92L213.58-51.92L213.58-51.92Q204.14-51.92 198.24-45.31L198.24-45.31L198.24-45.31Q192.69-39.06 192.69-29.50L192.69-29.50L192.69-29.50Q192.69-19.94 198.24-13.69L198.24-13.69L198.24-13.69Q204.14-7.08 213.58-7.08ZM272.93 0L264.08 0L264.08-51.21L252.05-51.21L252.05-59.00L264.08-59.00L264.08-80.12L272.93-80.12L272.93-59.00L286.50-59.00L286.50-51.21L272.93-51.21L272.93 0ZM339.84-43.19L330.87-43.19L330.87-43.19Q329.69-52.39 316.06-52.39L316.06-52.39L316.06-52.39Q302.43-52.39 302.43-43.90L302.43-43.90L302.43-43.90Q302.43-40.36 305.33-38.53L305.33-38.53L305.33-38.53Q308.22-36.70 312.58-35.52L312.58-35.52L312.58-35.52Q316.95-34.34 322.08-33.34L322.08-33.34L322.08-33.34Q327.21-32.33 331.58-30.50L331.58-30.50L331.58-30.50Q335.95-28.67 338.84-25.49L338.84-25.49L338.84-25.49Q341.73-22.30 341.73-16.76L341.73-16.76L341.73-16.76Q341.73-8.14 335.24-3.60L335.24-3.60L335.24-3.60Q328.75 0.94 317.66 0.94L317.66 0.94L317.66 0.94Q305.86 0.94 298.89-4.96L298.89-4.96L298.89-4.96Q292.52-10.15 292.05-18.53L292.05-18.53L301.25-18.53L301.25-18.53Q302.08-10.38 310.46-7.55L310.46-7.55L310.46-7.55Q313.53-6.61 316.54-6.61L316.54-6.61L316.54-6.61Q319.54-6.61 322.14-6.96L322.14-6.96L322.14-6.96Q324.74-7.32 327.21-8.26L327.21-8.26L327.21-8.26Q332.88-10.50 332.88-15.93L332.88-15.93L332.88-15.93Q332.88-19.59 329.99-21.54L329.99-21.54L329.99-21.54Q327.10-23.48 322.73-24.72L322.73-24.72L322.73-24.72Q318.36-25.96 313.23-26.96L313.23-26.96L313.23-26.96Q308.10-27.97 303.73-29.74L303.73-29.74L303.73-29.74Q299.37-31.51 296.48-34.57L296.48-34.57L296.48-34.57Q293.58-37.64 293.58-43.07L293.58-43.07L293.58-43.07Q293.58-51.09 299.43-55.52L299.43-55.52L299.43-55.52Q305.27-59.94 316.71-59.94L316.71-59.94L316.71-59.94Q327.57-59.94 333.82-54.75L333.82-54.75L333.82-54.75Q339.01-50.39 339.84-43.19L339.84-43.19ZM389.99-78.12L423.15 0L413.35 0L403.80-22.66L365.09-22.66L355.53 0L345.74 0L378.90-78.12L389.99-78.12ZM368.51-30.80L400.37-30.80L384.44-68.91L368.51-30.80ZM440.02-59.00L440.02-49.56L440.02-49.56Q447.10-59.94 461.14-59.94L461.14-59.94L461.14-59.94Q473.89-59.94 481.79-51.09L481.79-51.09L481.79-51.09Q489.70-42.36 489.70-29.50L489.70-29.50L489.70-29.50Q489.70-16.64 481.79-7.91L481.79-7.91L481.79-7.91Q473.89 0.94 460.55 0.94L460.55 0.94L460.55 0.94Q447.22 0.94 440.02-9.56L440.02-9.56L440.02 23.36L431.17 23.36L431.17-59.00L440.02-59.00ZM459.96-51.92L459.96-51.92L459.96-51.92Q450.41-51.92 444.86-45.31L444.86-45.31L444.86-45.31Q439.55-39.06 439.55-29.50L439.55-29.50L439.55-29.50Q439.55-19.94 444.86-13.69L444.86-13.69L444.86-13.69Q450.41-7.08 459.96-7.08L459.96-7.08L459.96-7.08Q469.40-7.08 475.30-13.69L475.30-13.69L475.30-13.69Q480.85-19.94 480.85-29.50L480.85-29.50L480.85-29.50Q480.85-39.06 475.30-45.31L475.30-45.31L475.30-45.31Q469.40-51.92 459.96-51.92ZM510.11-59.00L510.11-49.56L510.11-49.56Q517.19-59.94 531.24-59.94L531.24-59.94L531.24-59.94Q543.98-59.94 551.89-51.09L551.89-51.09L551.89-51.09Q559.79-42.36 559.79-29.50L559.79-29.50L559.79-29.50Q559.79-16.64 551.89-7.91L551.89-7.91L551.89-7.91Q543.98 0.94 530.65 0.94L530.65 0.94L530.65 0.94Q517.31 0.94 510.11-9.56L510.11-9.56L510.11 23.36L501.26 23.36L501.26-59.00L510.11-59.00ZM530.06-51.92L530.06-51.92L530.06-51.92Q520.50-51.92 514.95-45.31L514.95-45.31L514.95-45.31Q509.64-39.06 509.64-29.50L509.64-29.50L509.64-29.50Q509.64-19.94 514.95-13.69L514.95-13.69L514.95-13.69Q520.50-7.08 530.06-7.08L530.06-7.08L530.06-7.08Q539.50-7.08 545.40-13.69L545.40-13.69L545.40-13.69Q550.94-19.94 550.94-29.50L550.94-29.50L550.94-29.50Q550.94-39.06 545.40-45.31L545.40-45.31L545.40-45.31Q539.50-51.92 530.06-51.92Z" fill="url(#editing-outline-gradient)"></path></g></g><style>text {
  font-size: 64px;
  font-family: Arial Black;
  dominant-baseline: central;
  text-anchor: middle;
}</style></svg>